<svg xmlns="http://www.w3.org/2000/svg" xmlns:xlink="http://www.w3.org/1999/xlink" width="40" height="40" viewBox="0 0 40 40">
  <defs>
    <clipPath id="clip-path">
      <rect id="Rectangle_11092" data-name="Rectangle 11092" width="40" height="40" transform="translate(230 277)" fill="#4639ef" stroke="#707070" stroke-width="1"/>
    </clipPath>
  </defs>
  <g id="Mask_Group_485" data-name="Mask Group 485" transform="translate(-230 -277)" clip-path="url(#clip-path)">
    <path id="badge-check" d="M20,40a9.149,9.149,0,0,1-7.013-3.265,8.771,8.771,0,0,1-7.128-2.592,9.158,9.158,0,0,1-2.65-7.27A8.783,8.783,0,0,1,0,20a9.145,9.145,0,0,1,3.267-7.013A8.782,8.782,0,0,1,5.858,5.858a9.122,9.122,0,0,1,7.268-2.65A8.789,8.789,0,0,1,20,0a9.149,9.149,0,0,1,7.013,3.265,8.783,8.783,0,0,1,7.128,2.592,9.158,9.158,0,0,1,2.65,7.27A8.783,8.783,0,0,1,40,20a9.145,9.145,0,0,1-3.267,7.013,8.782,8.782,0,0,1-2.592,7.128,9.172,9.172,0,0,1-7.268,2.65A8.789,8.789,0,0,1,20,40Zm-6.878-6.54a3.128,3.128,0,0,1,2.413,1.127,5.832,5.832,0,0,0,8.93,0,3.137,3.137,0,0,1,2.693-1.117,5.833,5.833,0,0,0,6.313-6.313,3.127,3.127,0,0,1,1.117-2.695,5.832,5.832,0,0,0,0-8.927,3.13,3.13,0,0,1-1.117-2.695A5.832,5.832,0,0,0,27.16,6.527a3.121,3.121,0,0,1-2.695-1.115,5.832,5.832,0,0,0-8.93,0,3.153,3.153,0,0,1-2.693,1.117,5.833,5.833,0,0,0-6.313,6.313,3.127,3.127,0,0,1-1.117,2.695,5.832,5.832,0,0,0,0,8.927,3.13,3.13,0,0,1,1.117,2.7,5.832,5.832,0,0,0,6.312,6.313c.1-.008.188-.012.282-.012Zm8.213-8.235,7.9-7.613a1.667,1.667,0,0,0-2.315-2.4L19,22.847a1.681,1.681,0,0,1-2.4-.042l-3.8-3.528a1.666,1.666,0,1,0-2.268,2.442L14.287,25.2A5,5,0,0,0,17.83,26.67a4.944,4.944,0,0,0,3.507-1.443Z" transform="translate(230 277)" fill="#4639ef"/>
  </g>
</svg>
